
        <svg width="40" height="50" viewBox="0 0 152 175" fill="none" xmlns="http://www.w3.org/2000/svg">
            <g clip-path="url(#clip0_53_62)">
                <path d="M14.2077 155.974L0.800781 1.95483L150.8 1.43355L138.365 155.286L77.3105 173.4L14.2077 155.974Z" fill="#1B73BA" />
                <path d="M77.2286 158.519L76.4463 16.2114L138.217 16.0757L127.902 143.459L77.2286 158.519Z" fill="#1C88C7" />
                <path d="M122.977 34.1435L27.9543 34.6699L30.6308 53.2567L75.722 53.007L31.4568 72.3723L34.1286 90.3399L99.5022 89.9777L97.2717 115.103L75.1613 119.567L55.0586 114.511L53.4354 100.257L35.0075 100.36L37.6407 130.007L77.2343 140.846L115.054 128.545L119.574 70.5399L79.5249 70.7618L123.075 52.3317L122.977 34.1435Z" fill="white" />
            </g>
            <defs>
                <clipPath id="clip0_53_62">
                    <rect width="150" height="172.445" fill="white" transform="matrix(0.999985 -0.00553959 0.00549708 0.999985 0.799072 1.66553)" />
                </clipPath>
            </defs>
        </svg>
