

        <svg width="151" height="152" viewBox="0 0 151 152" fill="none" xmlns="http://www.w3.org/2000/svg">
            <g clip-path="url(#clip0_54_353)">
                <path d="M42.6918 113.121H30.9155V118.159H54.4814V115.64V113.121H42.6918Z" fill="#B3B3B3" />
                <path d="M54.4813 101.468V113.122H42.6917L45.2777 101.468H54.4813Z" fill="#666666" />
                <path d="M54.4815 113.121H50.3013V118.159H54.4815V113.121Z" fill="#808080" />
                <path d="M150.799 129.769C150.799 131.982 149.956 133.998 148.581 135.509C147.029 137.212 144.8 138.28 142.321 138.28H56.8165C54.4746 138.28 52.3569 137.326 50.8247 135.788C49.2891 134.249 48.3423 132.12 48.3423 129.769H150.799Z" fill="#71B7EA" />
                <path d="M140.532 73.9553H58.6098C56.3282 73.9553 54.4814 75.8125 54.4814 78.103V129.769H144.66V78.103C144.66 75.8125 142.81 73.9553 140.532 73.9553ZM136.965 122.045H62.1762V81.6797H136.965V122.045Z" fill="#88C5FC" />
                <path d="M54.4814 89.7903V101.468H6.55338C3.37513 101.468 0.799072 98.8816 0.799072 95.6911V89.7903H54.4814Z" fill="#B3B3B3" />
                <path d="M117.25 22.6216V50.1608H87.8096V30.6818V22.6216H117.25Z" fill="#F9A18A" />
                <path d="M136.965 81.6797H62.176V122.045H136.965V81.6797Z" fill="#E6E6E6" />
                <path d="M102.53 59.5645V73.9554H58.6098C56.7162 73.9554 55.1237 75.2349 54.6353 76.978C54.5349 77.334 54.4814 77.7135 54.4814 78.1031V89.7904H0.799072V36.4584C0.799072 33.2679 3.37513 30.6819 6.55338 30.6819H87.8095V54.4462C87.8095 57.274 90.0912 59.5645 92.9081 59.5645H102.53Z" fill="#AFDAF9" />
                <path d="M115.333 15.0114C114.46 14.3095 113.353 13.8896 112.148 13.8896H92.9082C90.0912 13.8896 87.8096 16.1835 87.8096 19.0113V54.4462C87.8096 57.0557 89.75 59.2051 92.2625 59.5208C92.4732 59.551 92.6907 59.5644 92.9082 59.5644H112.148C114.965 59.5644 117.25 57.274 117.25 54.4462V19.0113C117.25 17.3925 116.501 15.9484 115.333 15.0114ZM115.544 50.1608H89.5158V22.6216H115.544V50.1608Z" fill="#666666" />
                <path opacity="0.23" d="M52.23 89.7904L54.4815 85.4446V101.468H46.1746L52.23 89.7904Z" fill="#F2F2F2" />
                <path opacity="0.3" d="M102.53 59.5645V73.9554H60.4365L82.8716 30.6819H87.8096V54.4462C87.8096 57.274 90.0913 59.5645 92.9082 59.5645H102.53Z" fill="#F2F2F2" />
                <path opacity="0.3" d="M25.1177 30.6819L20.822 38.9638L17.965 44.4817L11.6888 56.5822L8.69451 62.362L2.9101 73.5221L0.799072 77.5926V36.4584C0.799072 33.2679 3.37513 30.6819 6.55338 30.6819H25.1177Z" fill="#F2F2F2" />
                <path opacity="0.23" d="M144.66 78.103V129.769H97.97L101.975 122.045L122.897 81.6797L126.902 73.9553H140.532C142.81 73.9553 144.66 75.8125 144.66 78.103Z" fill="#F2F2F2" />
                <path opacity="0.23" d="M117.25 19.0114V54.4463C117.25 57.2741 114.965 59.5645 112.148 59.5645H92.9081C92.6907 59.5645 92.4732 59.5511 92.2625 59.5209L93.2761 57.5629L97.1135 50.1609L111.389 22.6217L114.199 17.1978L115.333 15.0115C116.501 15.9485 117.25 17.3926 117.25 19.0114Z" fill="#F2F2F2" />
                <path opacity="0.23" d="M107.163 73.9553L103.159 81.6797L82.2359 122.045L78.2313 129.769H66.522L70.5266 122.045L91.4495 81.6797L95.4541 73.9553H107.163Z" fill="#F2F2F2" />
                <path opacity="0.23" d="M150.799 129.769C150.799 131.982 149.956 133.998 148.581 135.509H124.945L127.919 129.769H150.799Z" fill="#F2F2F2" />
                <path opacity="0.24" d="M92.9081 59.5645C90.0911 59.5645 87.8095 57.274 87.8095 54.4462V30.6819H85.8356H84.1294V57.8046C84.1294 60.4141 86.0698 62.5635 88.5823 62.8792C88.7931 62.9095 89.0105 62.9229 89.228 62.9229H102.53V59.5645H92.9081Z" fill="#808080" />
                <path opacity="0.24" d="M53.257 76.978C50.9754 76.978 49.1287 78.8352 49.1287 81.1257V101.468H54.4815V78.1031C54.4815 77.7135 54.535 77.334 54.6354 76.978H53.257Z" fill="#808080" />
            </g>
            <defs>
                <clipPath id="clip0_54_353">
                    <rect width="150" height="150.579" fill="white" transform="translate(0.799072 0.795166)" />
                </clipPath>
            </defs>
        </svg>
