

        <svg width="40" height="45" viewBox="0 0 153 228" fill="none" xmlns="http://www.w3.org/2000/svg">
            <g clip-path="url(#clip0_54_66)">
                <path d="M76.3488 113.76C76.2348 93.0129 92.8965 76.0153 113.648 75.9004C134.315 75.7859 151.248 92.5119 151.362 113.344C151.476 134.091 134.814 151.088 114.062 151.203C93.3955 151.318 76.4629 134.506 76.3488 113.76Z" fill="#1ABCFE" />
                <path d="M1.83417 189.392C1.72012 168.645 18.3819 151.648 39.1338 151.533L76.6404 151.325L76.8474 188.977C76.9615 209.723 60.2997 226.721 39.5478 226.836C18.7958 226.951 1.94869 210.224 1.83417 189.392Z" fill="#0ACF83" />
                <path d="M75.7283 0.890553L76.1417 76.108L113.648 75.9002C134.315 75.7857 151.063 58.8731 150.948 38.041C150.834 17.2943 133.986 0.482443 113.234 0.597402L75.7278 0.805176L75.7283 0.890553Z" fill="#FF7262" />
                <path d="M1.00702 38.9568C1.12107 59.7035 17.9687 76.5154 38.7206 76.4004L76.2272 76.1927L75.8133 0.889873L38.3067 1.09765C17.5547 1.2126 0.892507 18.1247 1.00702 38.9568Z" fill="#F24E1E" />
                <path d="M1.4206 114.175C1.53465 134.921 18.3822 151.733 39.1342 151.618L76.6408 151.41L76.2269 76.1076L38.7202 76.3154C17.9683 76.4304 1.30655 93.4279 1.4206 114.175Z" fill="#A259FF" />
            </g>
            <defs>
                <clipPath id="clip0_54_66">
                    <rect width="150" height="226.032" fill="white" transform="matrix(0.999985 -0.00553957 0.00549705 0.999985 0.799072 1.11743)" />
                </clipPath>
            </defs>
        </svg>

 