
        <svg xmlns="http://www.w3.org/2000/svg" version="1.1" xmlnsXlink="http://www.w3.org/1999/xlink"  viewBox="0 0 2400 800"><defs><linearGradient x1="50%" y1="0%" x2="50%" y2="100%" id="sssurf-grad"><stop stop-color="#1b0929ff" stop-opacity="1" offset="0%"></stop><stop stop-color="#7b18c6ff" stop-opacity="1" offset="100%"></stop></linearGradient></defs><g fill="url(#sssurf-grad)" transform="matrix(1,0,0,1,7.6488037109375,106.70039367675781)"><path d="M-10,10C54.58333333333333,17.916666666666664,172.91666666666666,53.208333333333336,300,48C427.08333333333337,42.791666666666664,475,-8.333333333333334,600,-15C725,-21.666666666666664,775,20.375,900,16C1025,11.625,1075,-36.833333333333336,1200,-36C1325,-35.166666666666664,1375,15.833333333333332,1500,20C1625,24.166666666666668,1675,-19.958333333333332,1800,-16C1925,-12.041666666666668,1975,43.375,2100,39C2225,34.625,2285.4166666666665,-112.20833333333333,2400,-37C2514.5833333333335,38.20833333333333,3254.1666666666665,204.79166666666669,2650,400C2045.8333333333335,595.2083333333333,156.25,795.8333333333334,-500,900" transform="matrix(1,0,0,1,0,109)" opacity="0.05"></path><path d="M-10,10C54.58333333333333,17.916666666666664,172.91666666666666,53.208333333333336,300,48C427.08333333333337,42.791666666666664,475,-8.333333333333334,600,-15C725,-21.666666666666664,775,20.375,900,16C1025,11.625,1075,-36.833333333333336,1200,-36C1325,-35.166666666666664,1375,15.833333333333332,1500,20C1625,24.166666666666668,1675,-19.958333333333332,1800,-16C1925,-12.041666666666668,1975,43.375,2100,39C2225,34.625,2285.4166666666665,-112.20833333333333,2400,-37C2514.5833333333335,38.20833333333333,3254.1666666666665,204.79166666666669,2650,400C2045.8333333333335,595.2083333333333,156.25,795.8333333333334,-500,900" transform="matrix(1,0,0,1,0,218)" opacity="0.37"></path><path d="M-10,10C54.58333333333333,17.916666666666664,172.91666666666666,53.208333333333336,300,48C427.08333333333337,42.791666666666664,475,-8.333333333333334,600,-15C725,-21.666666666666664,775,20.375,900,16C1025,11.625,1075,-36.833333333333336,1200,-36C1325,-35.166666666666664,1375,15.833333333333332,1500,20C1625,24.166666666666668,1675,-19.958333333333332,1800,-16C1925,-12.041666666666668,1975,43.375,2100,39C2225,34.625,2285.4166666666665,-112.20833333333333,2400,-37C2514.5833333333335,38.20833333333333,3254.1666666666665,204.79166666666669,2650,400C2045.8333333333335,595.2083333333333,156.25,795.8333333333334,-500,900" transform="matrix(1,0,0,1,0,327)" opacity="0.68"></path><path d="M-10,10C54.58333333333333,17.916666666666664,172.91666666666666,53.208333333333336,300,48C427.08333333333337,42.791666666666664,475,-8.333333333333334,600,-15C725,-21.666666666666664,775,20.375,900,16C1025,11.625,1075,-36.833333333333336,1200,-36C1325,-35.166666666666664,1375,15.833333333333332,1500,20C1625,24.166666666666668,1675,-19.958333333333332,1800,-16C1925,-12.041666666666668,1975,43.375,2100,39C2225,34.625,2285.4166666666665,-112.20833333333333,2400,-37C2514.5833333333335,38.20833333333333,3254.1666666666665,204.79166666666669,2650,400C2045.8333333333335,595.2083333333333,156.25,795.8333333333334,-500,900" transform="matrix(1,0,0,1,0,436)" opacity="1.00"></path></g></svg>