
        <svg width="40" height="40" viewBox="0 0 152 153" fill="none" xmlns="http://www.w3.org/2000/svg">
            <g clip-path="url(#clip0_54_77)">
                <path d="M148.345 69.5314L82.4931 4.1545C78.703 0.389197 72.5859 0.423084 68.8328 4.23017L55.3084 17.9574L72.6551 35.1799C76.6566 33.7978 81.2588 34.6846 84.4721 37.8749C87.7007 41.0857 88.6286 45.7351 87.2633 49.7801L103.981 66.3785C107.996 64.9651 112.642 65.8393 115.872 69.0519C120.387 73.5325 120.427 80.8349 115.962 85.3683C111.495 89.9022 104.221 89.9425 99.7028 85.4583C96.3069 82.0832 95.4451 77.1088 97.1319 72.9226L81.5415 57.4438L81.7649 98.4036C82.892 98.9553 83.9226 99.6865 84.8167 100.569C89.3314 105.05 89.3716 112.353 84.9064 116.889C80.4401 121.421 73.1622 121.461 68.6528 116.979C64.138 112.492 64.0978 105.19 68.5631 100.66C69.6331 99.5729 70.9071 98.71 72.3115 98.1207L72.0842 56.7791C70.6714 56.2093 69.3873 55.3601 68.3081 54.2819C64.8875 50.8905 64.042 45.8842 65.762 41.6813L48.6622 24.7021L4.00443 70.0269C0.25188 73.8375 0.285639 79.9788 4.07984 83.7446L69.9328 149.123C73.7241 152.889 79.84 152.855 83.5943 149.047L148.42 83.2503C152.171 79.4415 152.138 73.2967 148.345 69.5314Z" fill="#DE4C36" />
            </g>
            <defs>
                <clipPath id="clip0_54_77">
                    <rect width="150" height="150.579" fill="white" transform="matrix(0.999985 -0.00553959 0.00549708 0.999985 0.799072 1.76709)" />
                </clipPath>
            </defs>
        </svg>
