
        <svg width="152" height="149" viewBox="0 0 152 149" fill="none" xmlns="http://www.w3.org/2000/svg">
            <path d="M75.7982 1.35137C34.3827 1.5808 0.984367 35.4742 1.21295 77.0555C1.39581 110.321 23.0404 138.423 52.8948 148.213C56.6467 148.889 58.0103 146.551 57.9994 144.563C57.9895 142.768 57.8869 136.837 57.8206 130.546C36.9802 135.216 32.5036 121.803 32.5036 121.803C29.0442 113.119 24.1158 110.833 24.1158 110.833C17.2858 106.198 24.6036 106.253 24.6036 106.253C32.1379 106.742 36.1433 113.948 36.1433 113.948C42.8956 125.421 53.7333 122.033 58.0025 120.086C58.6486 115.216 60.5744 111.884 62.7086 109.992C46.0402 108.18 28.4927 101.821 28.3341 72.9731C28.2889 64.7537 31.1818 58.0208 35.9508 52.7219C35.1616 50.8296 32.5526 43.1865 36.5677 32.7934C36.5677 32.7934 42.8545 30.735 57.2403 40.3967C63.2132 38.6948 69.6247 37.8232 75.9984 37.7595C82.3723 37.7526 88.7978 38.5531 94.8007 40.1886C109.062 30.3682 115.363 32.3569 115.363 32.3569C119.502 42.7048 116.976 50.3764 116.207 52.2773C121.045 57.523 123.992 64.223 124.037 72.443C124.196 101.36 106.686 107.825 89.9958 109.781C92.6985 112.102 95.1206 116.671 95.1592 123.695C95.2146 133.768 95.1721 141.877 95.1857 144.357C95.1967 146.36 96.5596 148.7 100.358 147.94C130.086 137.808 151.393 109.478 151.211 76.2245C150.982 34.6432 117.218 1.12192 75.7982 1.35137Z" fill="#9747FF" />
            <path d="M45.6836 127.631C45.4705 128.121 44.7023 128.273 44.0016 127.941C43.2871 127.623 42.8827 126.957 43.1112 126.464C43.3203 125.958 44.0886 125.813 44.8016 126.148C45.5177 126.465 45.9282 127.137 45.6836 127.631ZM50.5402 131.932C50.0741 132.371 49.1568 132.174 48.5312 131.488C47.8848 130.804 47.7596 129.885 48.2325 129.44C48.7133 129.001 49.6028 129.2 50.2508 129.885C50.8972 130.577 51.0271 131.49 50.5395 131.933M53.8863 137.452C53.286 137.876 52.2991 137.487 51.6864 136.614C51.0797 135.741 51.074 134.689 51.6865 134.264C52.2945 133.839 53.2659 134.212 53.8871 135.079C54.493 135.968 54.4988 137.02 53.8855 137.453M59.528 143.836C58.9927 144.435 57.8452 144.282 57.0009 143.473C56.1381 142.682 55.8923 141.555 56.4291 140.956C56.9706 140.355 58.1251 140.517 58.9755 141.319C59.8329 142.108 60.0988 143.243 59.528 143.836ZM66.7861 145.962C66.5538 146.735 65.4507 147.092 64.3363 146.77C63.2233 146.439 62.4909 145.538 62.7109 144.756C62.9378 143.977 64.0453 143.605 65.1684 143.95C66.2798 144.281 67.0129 145.175 66.7861 145.962ZM75.039 146.834C75.0712 147.648 74.131 148.328 72.9629 148.349C71.788 148.381 70.8343 147.728 70.8176 146.928C70.8131 146.107 71.7317 145.433 72.9059 145.407C74.0739 145.378 75.0345 146.026 75.039 146.834ZM83.1387 146.478C83.2833 147.27 82.4757 148.09 81.3172 148.313C80.1779 148.528 79.1196 148.045 78.9696 147.259C78.8234 146.446 79.6465 145.627 80.7834 145.409C81.9443 145.2 82.9863 145.672 83.1387 146.478Z" fill="#9747FF" />
        </svg>
