
        <svg width="150" height="150" viewBox="0 0 71 71" fill="none" xmlns="http://www.w3.org/2000/svg">
            <path d="M0.991699 10.0461C0.991699 4.52329 5.46885 0.0461426 10.9917 0.0461426H60.9917C66.5145 0.0461426 70.9917 4.5233 70.9917 10.0461V60.3163C70.9917 65.8392 66.5145 70.3163 60.9917 70.3163H10.9917C5.46885 70.3163 0.991699 65.8392 0.991699 60.3163V10.0461Z" fill="#F0DB4F" />
            <path d="M65.2625 53.5571C64.7501 50.3508 62.6674 47.6589 56.4992 45.1474C54.3566 44.1588 51.9678 43.4508 51.2559 41.8209C51.003 40.8724 50.9697 40.338 51.1294 39.7635C51.5886 37.8999 53.8043 37.3188 55.561 37.8532C56.6922 38.2339 57.7635 39.109 58.4089 40.505C61.4298 38.5412 61.4232 38.5545 63.5325 37.2053C62.7606 36.003 62.3481 35.4485 61.8424 34.9342C60.0258 32.8969 57.5505 31.8482 53.5914 31.9283C52.906 32.0152 52.2141 32.1086 51.5287 32.1955C49.5525 32.6965 47.6694 33.7385 46.5648 35.1346C43.2511 38.9086 44.196 45.5147 48.2283 48.2334C52.2007 51.2259 58.0363 51.9073 58.7815 54.706C59.5068 58.1327 56.273 59.2415 53.0591 58.8474C50.6903 58.3532 49.3728 57.1441 47.9488 54.9465C45.3272 56.4695 45.3272 56.4695 42.6323 58.0258C43.2711 59.4286 43.9431 60.0631 45.0145 61.2788C50.0848 66.4422 62.7739 66.1884 65.0496 58.3732C65.1427 58.1059 65.755 56.3158 65.2625 53.5571ZM39.0458 32.3424H32.4983C32.4983 38.0201 32.4717 43.6578 32.4717 49.3355C32.4717 52.9492 32.658 56.2623 32.0725 57.2777C31.1143 59.2748 28.6324 59.0277 27.5012 58.6402C26.35 58.0725 25.7645 57.2642 25.0858 56.1221C24.8995 55.7948 24.7597 55.5409 24.7131 55.5209C22.9365 56.6097 21.1665 57.7051 19.3899 58.7939C20.2749 60.6175 21.5791 62.2006 23.2492 63.2292C25.7445 64.7321 29.0981 65.193 32.6048 64.3848C34.8871 63.7168 36.8566 62.3342 37.888 60.2301C39.3785 57.4714 39.0591 54.1315 39.0458 50.4377C39.0791 44.4126 39.0458 38.3875 39.0458 32.3424Z" fill="#323330" />
        </svg>
