
        <svg width="40" height="40" viewBox="0 0 72 64" fill="none" xmlns="http://www.w3.org/2000/svg">
            <path d="M71.1815 31.9865C71.1558 27.3178 65.3109 22.9255 56.3719 20.2311C58.3811 11.0833 57.4258 3.81951 53.3801 1.51465C52.4475 0.973919 51.3592 0.721363 50.1722 0.727938L50.1898 3.93142C50.8477 3.92778 51.3776 4.05413 51.8222 4.29589C53.7733 5.40561 54.6406 9.66746 54.0129 15.1587C53.863 16.5099 53.6134 17.9335 53.3067 19.3861C50.4999 18.7121 47.4365 18.1976 44.2169 17.8706C42.2716 15.2237 40.2562 12.8214 38.2281 10.7209C42.8664 6.34235 47.2294 3.93345 50.2041 3.91698L50.1865 0.713494C46.2536 0.735281 41.1207 3.57942 35.9419 8.49249C30.7096 3.66582 25.5459 0.907459 21.613 0.929245L21.6306 4.13273C24.591 4.11633 28.9945 6.46229 33.6804 10.7604C31.6899 12.8833 29.7009 15.2934 27.8134 17.9615C24.5833 18.3242 21.5257 18.8726 18.7266 19.5921C18.3898 18.1574 18.139 16.7653 17.96 15.4302C17.2577 9.94638 18.0637 5.67526 19.9881 4.5297C20.4158 4.26875 20.9729 4.15074 21.6307 4.14709L21.6131 0.94361C20.4118 0.950265 19.3263 1.21486 18.3855 1.76598C14.3796 4.11543 13.5185 11.3749 15.6423 20.4711C6.7621 23.2785 0.994373 27.7208 1.01996 32.3752C1.04562 37.0439 6.89052 41.4362 15.8295 44.1306C13.8204 53.2784 14.7756 60.5422 18.8214 62.847C19.7539 63.3878 20.8422 63.6403 22.0435 63.6337C25.9764 63.6119 31.1093 60.7678 36.2881 55.8547C41.5204 60.6814 46.6841 63.4397 50.617 63.4179C51.8183 63.4113 52.9037 63.1467 53.8446 62.5956C57.8504 60.2461 58.7115 52.9866 56.5878 43.8904C65.4394 41.0975 71.2071 36.6409 71.1815 31.9865ZM52.5087 22.508C51.9898 24.364 51.3424 26.2783 50.6092 28.193C50.0166 27.047 49.3953 25.9012 48.7168 24.7557C48.0527 23.6101 47.3458 22.4935 46.639 21.4056C48.6714 21.696 50.6327 22.0586 52.5087 22.508ZM46.0429 37.8434C44.938 39.7889 43.8041 41.634 42.6265 43.35C40.4966 43.5486 38.3377 43.6611 36.1639 43.6732C34.0044 43.6851 31.8444 43.5965 29.7269 43.4359C28.5305 41.733 27.3621 39.915 26.236 37.9962C25.1388 36.1203 24.1415 34.2152 23.2299 32.2952C24.106 30.3654 25.0965 28.4349 26.1588 26.5471C27.2636 24.6016 28.3976 22.7564 29.5752 21.0404C31.705 20.8418 33.8639 20.7293 36.0377 20.7173C38.1972 20.7053 40.3572 20.7939 42.4747 20.9546C43.6711 22.6575 44.8396 24.4755 45.9656 26.3942C47.0629 28.2701 48.0602 30.1752 48.9717 32.0952C48.0813 34.0251 47.1051 35.9556 46.0429 37.8434ZM50.6519 35.9503C51.4347 37.871 52.1032 39.7923 52.6569 41.6568C50.786 42.1268 48.8145 42.5256 46.7711 42.8386C47.4658 41.7286 48.1603 40.5899 48.8118 39.4226C49.4633 38.2698 50.0719 37.1028 50.6519 35.9503ZM36.2348 51.3585C34.8972 49.9868 33.5587 48.457 32.2338 46.7836C33.5212 46.8339 34.8371 46.8697 36.1671 46.8624C37.5115 46.8549 38.8413 46.8188 40.1423 46.7398C38.8644 48.4277 37.5429 49.9721 36.2348 51.3585ZM25.5482 42.9562C23.5157 42.6658 21.5544 42.3031 19.6785 41.8538C20.1974 39.9978 20.8448 38.0835 21.5779 36.1688C22.1706 37.3148 22.7919 38.4606 23.4703 39.6061C24.1488 40.7516 24.8414 41.8683 25.5482 42.9562ZM35.9524 13.0033C37.29 14.375 38.6285 15.9047 39.9534 17.5782C38.666 17.5279 37.35 17.4921 36.02 17.4994C34.6757 17.5069 33.3459 17.543 32.0449 17.622C33.3227 15.9341 34.6443 14.3897 35.9524 13.0033ZM25.4161 21.5231C24.7214 22.6332 24.0269 23.7719 23.3754 24.9391C22.7239 26.092 22.1152 27.2447 21.5352 28.3971C20.7524 26.4764 20.0839 24.5551 19.5302 22.6906C21.4012 22.2349 23.3726 21.8361 25.4161 21.5231ZM12.5724 39.5803C7.49782 37.4392 4.20722 34.613 4.19482 32.3576C4.18242 30.1022 7.44168 27.2254 12.4924 25.0425C13.7194 24.5042 15.0611 24.0227 16.4459 23.5697C17.2765 26.3808 18.3652 29.3054 19.7117 32.3004C18.4125 35.2957 17.3702 38.2177 16.5847 41.0234C15.1665 40.5859 13.8195 40.1049 12.5724 39.5803ZM20.3792 60.0658C18.4281 58.9561 17.5609 54.6942 18.1886 49.203C18.3385 47.8518 18.5881 46.4282 18.8947 44.9756C21.7015 45.6496 24.7649 46.1641 27.9846 46.4911C29.9298 49.138 31.9453 51.5403 33.9733 53.6408C29.3351 58.0193 24.972 60.4282 21.9974 60.4447C21.3538 60.4339 20.8096 60.3076 20.3792 60.0658ZM54.2414 48.9315C54.9438 54.4153 54.1377 58.6864 52.2133 59.832C51.7857 60.093 51.2286 60.211 50.5707 60.2146C47.6104 60.231 43.2069 57.885 38.521 53.5869C40.5115 51.4641 42.5005 49.054 44.3879 46.3858C47.6181 46.0232 50.6756 45.4747 53.4748 44.7553C53.8117 46.2043 54.0768 47.5964 54.2414 48.9315ZM59.6947 39.3193C58.4677 39.8576 57.126 40.3391 55.7413 40.7921C54.9106 37.981 53.8219 35.0564 52.4754 32.0614C53.7747 29.0661 54.817 26.1441 55.6024 23.3384C57.0207 23.7759 58.3677 24.2569 59.6291 24.7814C64.7036 26.9225 67.9942 29.7487 68.0066 32.0041C68.0047 34.2595 64.7455 37.1364 59.6947 39.3193Z" fill="#61DAFB" />
            <path d="M36.1225 38.7459C39.732 38.7259 42.6419 35.7704 42.622 32.1447C42.6021 28.5189 39.6598 25.5959 36.0503 25.6159C32.4407 25.6359 29.5308 28.5913 29.5507 32.2171C29.5707 35.8428 32.5129 38.7659 36.1225 38.7459Z" fill="#61DAFB" />
        </svg>
